<svg width="42" height="42" viewBox="0 0 42 42" fill="none" xmlns="http://www.w3.org/2000/svg">
<rect width="42" height="42" fill="#E5E5E5"/>
<rect width="1920" height="1080" transform="translate(-1779 -396)" fill="#F6F9FF"/>
<circle cx="21" cy="21" r="21" fill="#BABEC8"/>
<path d="M28.2219 28.3343H13.7838C13.3428 28.3343 12.9843 28.6956 12.9843 29.1337V30.2006C12.9843 30.6415 13.3456 31 13.7838 31H28.2162C28.6572 31 29.0156 30.6387 29.0156 30.2006V29.1337C29.0242 28.6899 28.6629 28.3343 28.2219 28.3343Z" fill="white"/>
<path d="M20.4438 26.9033C20.6003 27.0598 20.8051 27.1394 21.0071 27.1394C21.2119 27.1394 21.4168 27.0598 21.5704 26.9033L27.0384 21.4353C27.3485 21.1252 27.3485 20.6188 27.0384 20.303L26.2817 19.5462C25.9715 19.2361 25.4651 19.2361 25.1494 19.5462L22.3385 22.3599V11.7994C22.3385 11.3585 21.9772 11 21.5391 11H20.4723C20.0313 11 19.6728 11.3556 19.6728 11.7994V22.3627L16.8592 19.5491C16.549 19.239 16.0398 19.239 15.7269 19.5491L14.9701 20.3058C14.66 20.6159 14.66 21.1252 14.9701 21.4381L20.4438 26.9033Z" fill="white"/>
</svg>
