<svg width="14" height="12" viewBox="0 0 14 12" fill="none" xmlns="http://www.w3.org/2000/svg">
<path d="M13.7525 5.40864L8.70265 0.425241C8.37707 0.102976 7.85051 0.107155 7.52824 0.433561C7.20598 0.759968 7.2093 1.28571 7.53656 1.60798L11.1453 5.16942H1.47508C1.01578 5.16942 0.644531 5.54067 0.644531 5.99997C0.644531 6.45926 1.01578 6.83055 1.47508 6.83055H11.1453L7.53656 10.392C7.20934 10.7143 7.20683 11.24 7.52824 11.5664C7.69101 11.7309 7.90531 11.8139 8.11961 11.8139C8.33059 11.8139 8.54152 11.7342 8.70265 11.5747L13.7525 6.5913C13.9103 6.43516 14 6.22251 14 5.99993C14 5.77743 13.9111 5.56563 13.7525 5.40864Z" fill="white"/>
</svg>
