<svg width="49" height="49" viewBox="0 0 49 49" fill="none" xmlns="http://www.w3.org/2000/svg">
<rect width="49" height="49" rx="24.5" fill="#F4F4F4"/>
<path d="M35.842 14.1675C35.4239 14.1675 35.0068 14.1664 34.5891 14.1664C33.5984 14.1642 32.6842 14.922 31.985 15.5228C31.3042 16.1079 30.721 16.8171 30.1642 17.5212C29.9644 16.9733 29.7019 16.435 29.4295 15.9435C29.0724 15.2426 28.372 14.5668 27.5879 14.4034C27.1909 14.3198 26.7459 14.3606 26.3429 14.3606C25.9932 14.3595 25.0006 14.3606 25.0006 14.3606C25.0006 14.3606 24.0065 14.3595 23.6575 14.3606C23.2538 14.3606 22.81 14.32 22.4124 14.4034C21.6283 14.5668 20.928 15.2426 20.5713 15.9435C20.2986 16.435 20.0357 16.9733 19.8364 17.5213C19.2797 16.8171 18.6961 16.1081 18.0153 15.5228C17.3158 14.9219 16.4025 14.1642 15.4109 14.1664C14.9933 14.1664 14.5756 14.1675 14.158 14.1675C13.5612 14.1684 12.9652 14.1692 12.368 14.1703C11.9336 14.1722 10.9712 14.0579 11.1989 14.7652C11.2541 14.9365 11.4486 15.0903 11.5588 15.2326C11.6845 15.3958 11.8101 15.5603 11.9189 15.7354C12.0928 16.0146 12.2611 16.2972 12.4237 16.5832C12.8149 17.2737 13.1446 18.0021 13.5331 18.6961C14.388 20.227 15.3024 21.7228 16.4073 23.0888C17.2233 24.0962 18.2088 25.1136 19.4282 25.6136C18.5076 27.3245 17.5908 29.0379 16.6733 30.7501C15.8785 32.231 15.0842 33.7041 14.2464 35.1613C14.2062 35.2324 14.1643 35.3021 14.1265 35.3735C14.0166 35.5809 13.8593 35.8707 13.8604 36.1092C13.8613 36.5824 14.5632 36.5965 14.8994 36.5987C15.2617 36.6009 15.6251 36.591 15.9876 36.5873C16.6178 36.5802 17.248 36.5719 17.8778 36.5656C18.2509 36.5614 18.63 36.576 19.0014 36.5405C19.9464 36.4495 20.8107 35.977 21.3683 35.2031C21.549 34.9513 23.2435 32.1723 23.9291 31.0496C24.1881 30.6245 25.0006 29.3541 25.0006 29.3541C25.0006 29.3541 25.8119 30.6245 26.0715 31.0496C26.7567 32.1723 28.4515 34.9513 28.6321 35.2032C29.1903 35.977 30.0537 36.4495 30.9989 36.5405C31.3707 36.576 31.7491 36.5614 32.1222 36.5656C32.7517 36.5719 33.3822 36.5802 34.0128 36.5873C34.3753 36.5909 34.7385 36.6009 35.1013 36.5987C35.4365 36.5965 36.1397 36.5824 36.1402 36.1092C36.1416 35.8707 35.9848 35.5809 35.8733 35.3735C35.8352 35.3021 35.7939 35.2324 35.7537 35.1613C34.9167 33.7041 34.1221 32.231 33.3278 30.7501C32.4092 29.0379 31.4924 27.3245 30.5711 25.6136C31.791 25.1135 32.7766 24.0963 33.5926 23.0888C34.6984 21.7228 35.6118 20.227 36.4673 18.6961C36.8552 18.0021 37.1849 17.2737 37.577 16.5833C37.7393 16.2972 37.9076 16.0145 38.0817 15.7354C38.19 15.5602 38.316 15.3958 38.4413 15.2327C38.5526 15.0903 38.7457 14.9365 38.8017 14.7652C39.0287 14.058 38.0677 14.1722 37.6332 14.1703C37.0356 14.1692 36.4388 14.1684 35.8421 14.1675H35.842Z" fill="#F9C638"/>
<path d="M27.0708 18.1067C27.1346 18.0976 27.1982 18.0867 27.2614 18.0741C27.3494 18.0557 27.4359 18.0307 27.5202 17.9993C27.7494 17.9194 27.8907 17.8124 27.9923 17.7312C28.07 17.6719 28.1285 17.6047 28.1485 17.5634C27.5953 17.5736 27.1834 17.5705 26.9112 17.5493C26.8372 17.5381 26.7832 17.7298 26.7476 18.1168C26.7437 18.1466 26.922 18.127 27.0708 18.1067ZM25.5505 20.8117H25.5497H25.5508H25.5505ZM24.3677 20.8117H24.3661H24.3677ZM24.278 20.6857C24.2711 20.6936 24.2672 20.7038 24.2672 20.7143C24.2675 20.7203 24.269 20.7263 24.2717 20.7317C24.2744 20.7371 24.2782 20.7419 24.2829 20.7457C24.3091 20.7686 24.3361 20.7924 24.3675 20.8117C24.5286 20.9235 24.7267 20.9824 24.9581 20.9857C25.1937 20.9824 25.3805 20.9271 25.5505 20.8116C25.5797 20.7929 25.61 20.772 25.6389 20.7457C25.6598 20.7281 25.6695 20.7012 25.6543 20.6833C25.6389 20.6664 25.612 20.6615 25.5836 20.6818C25.5583 20.703 25.5318 20.7229 25.5044 20.7413H25.5036C25.3475 20.8469 25.175 20.8973 24.9581 20.9008C24.7455 20.8973 24.5617 20.8436 24.4146 20.7417C24.4146 20.7413 24.414 20.7413 24.4133 20.7413C24.3869 20.7235 24.3626 20.7023 24.3388 20.6819C24.3346 20.6781 24.3297 20.6752 24.3243 20.6733C24.319 20.6715 24.3133 20.6707 24.3076 20.671C24.302 20.6714 24.2964 20.6729 24.2913 20.6754C24.2862 20.6779 24.2817 20.6814 24.278 20.6857V20.6857ZM26.7019 20.3166C26.6997 20.3135 26.6977 20.3047 26.6966 20.3027C26.6966 20.3027 26.6999 20.3118 26.703 20.3168L26.7019 20.3166ZM28.0048 18.7702C27.9403 18.6423 27.8695 18.5495 27.7934 18.4935C27.5482 18.3122 27.1755 18.3109 26.9537 18.5287C26.8503 18.6304 26.7748 18.7542 26.7172 18.8869C26.5886 19.1872 26.4925 19.5278 26.5137 19.8586C26.5244 20.0082 26.5762 20.1633 26.6815 20.2727C26.8074 20.4067 26.989 20.4592 27.1642 20.4949C27.3379 20.5306 27.5407 20.5579 27.7033 20.4717C27.8907 20.3705 27.9695 20.1396 28.0213 19.9503C28.0871 19.7066 28.1485 19.446 28.1235 19.1911C28.1097 19.0506 28.0681 18.8971 28.0048 18.7701V18.7702Z" fill="#2A2D2C"/>
<path d="M27.3915 19.3875C27.5303 19.341 27.6209 19.3149 27.661 19.3119C27.4639 19.3265 27.3622 19.2465 27.3441 19.0749L27.3075 18.7173C27.2965 18.9471 27.2711 19.0939 27.2201 19.1696C27.1867 19.2168 27.1589 19.2496 27.1256 19.2642L27.0088 19.3011C26.9619 19.3148 26.9137 19.3306 26.8746 19.3306C27.0893 19.3119 27.2052 19.3666 27.2232 19.4854C27.2535 19.6581 27.2711 19.7706 27.2854 19.8254C27.2892 19.5587 27.3256 19.4146 27.3915 19.3876V19.3875ZM27.6538 19.9191L27.632 19.6978C27.6245 19.8397 27.6102 19.9304 27.5808 19.978C27.5628 20.0042 27.5407 20.0256 27.5184 20.0375L27.4496 20.0584C27.4201 20.0657 27.3915 20.0767 27.3659 20.0767C27.4962 20.0657 27.5697 20.0981 27.5841 20.1712C27.5986 20.2772 27.6135 20.3497 27.6209 20.3789C27.6209 20.2147 27.6429 20.1281 27.6862 20.113C27.7706 20.084 27.8248 20.0657 27.8501 20.0657C27.7298 20.0736 27.6648 20.0221 27.6537 19.9191" fill="white"/>
<path d="M23.1635 18.1171C23.1258 17.7299 23.0722 17.5382 22.9989 17.5495C22.726 17.5707 22.3148 17.5737 21.7609 17.5635C21.7807 17.6049 21.8405 17.6721 21.9168 17.7313C22.0193 17.8126 22.1592 17.9194 22.3893 17.9994C22.4736 18.0304 22.5599 18.0555 22.6478 18.0743C22.6659 18.0787 22.7469 18.093 22.8389 18.1068C22.9872 18.1272 23.1653 18.1468 23.1634 18.1171H23.1635ZM23.2073 20.3169C23.2095 20.312 23.2131 20.3029 23.2131 20.3029C23.2117 20.3076 23.2101 20.3122 23.2081 20.3167C23.2081 20.3167 23.2073 20.3167 23.2073 20.3169ZM21.7863 19.1913C21.7609 19.4461 21.822 19.7068 21.8887 19.9506C21.9397 20.1398 22.0184 20.3707 22.2061 20.4718C22.3692 20.558 22.5725 20.5307 22.745 20.4949C22.9199 20.4594 23.102 20.4068 23.2283 20.2728C23.3334 20.1635 23.3852 20.0084 23.396 19.8588C23.4172 19.5279 23.3213 19.1874 23.1919 18.8871C23.1351 18.7543 23.0595 18.6306 22.9554 18.5289C22.7348 18.311 22.3626 18.3123 22.1162 18.4936C22.0399 18.5496 21.9697 18.6424 21.9063 18.7702C21.8411 18.9022 21.8004 19.0448 21.7862 19.1913H21.7863Z" fill="#2A2D2C"/>
<path d="M22.518 19.3876C22.3794 19.3411 22.2887 19.315 22.2487 19.3119C22.4455 19.3266 22.5479 19.2466 22.5656 19.075L22.6019 18.7174C22.6127 18.9472 22.6381 19.094 22.6901 19.1697C22.7227 19.2169 22.7516 19.2497 22.7836 19.2643L22.9006 19.3012C22.9482 19.3149 22.9952 19.3306 23.0353 19.3306C22.8208 19.3119 22.7044 19.3667 22.6866 19.4855C22.6566 19.6582 22.6381 19.7707 22.624 19.8255C22.6204 19.5587 22.5838 19.4147 22.518 19.3877V19.3876ZM22.2557 19.9192L22.278 19.6979C22.2851 19.8397 22.3003 19.9305 22.3293 19.9781C22.3471 20.0043 22.3692 20.0257 22.3906 20.0376L22.4598 20.0585C22.4893 20.0658 22.518 20.0768 22.5438 20.0768C22.4124 20.0658 22.3394 20.0982 22.3254 20.1712C22.3108 20.2773 22.2957 20.3497 22.2887 20.379C22.2887 20.2148 22.2665 20.1282 22.2231 20.1131C22.1394 20.0841 22.0845 20.0658 22.0589 20.0658C22.1793 20.0737 22.2452 20.0222 22.2557 19.9192ZM14.2087 35.4162C14.1536 35.5207 14.0884 35.6424 14.0383 35.7647C13.9871 35.8859 13.9524 36.0091 13.9524 36.1078V36.1094C13.954 36.2039 13.9854 36.2643 14.0403 36.3182C14.0954 36.3709 14.1803 36.4124 14.2797 36.4417C14.4805 36.4989 14.7332 36.505 14.8993 36.5058C14.9365 36.5067 14.9739 36.5067 15.0106 36.5067C15.3343 36.5067 15.66 36.4976 15.9864 36.4946L17.8767 36.4728C17.9426 36.4728 18.0081 36.4723 18.0735 36.4723C18.1517 36.4723 18.2291 36.4728 18.306 36.4728C18.5377 36.4728 18.7679 36.4695 18.9926 36.4477C19.9127 36.3595 20.7506 35.9002 21.293 35.1479C21.3341 35.0925 21.4751 34.8683 21.6694 34.5561C21.8641 34.2437 22.1151 33.8378 22.3807 33.4042C22.9125 32.5383 23.5076 31.5616 23.8503 31.0012C24.111 30.5739 24.9212 29.3052 24.9218 29.3043C24.9303 29.2912 24.942 29.2804 24.9557 29.2728C24.9695 29.2653 24.9848 29.2613 25.0005 29.2611C25.032 29.2611 25.0615 29.2785 25.0779 29.3043C25.0783 29.3047 25.8904 30.5739 26.1508 31.0012C26.6643 31.8425 27.7462 33.6169 28.3309 34.556C28.5251 34.8683 28.6664 35.0925 28.7075 35.1479C29.2486 35.9002 30.087 36.3595 31.0077 36.4477C31.232 36.4695 31.4629 36.4728 31.6938 36.4728C31.7712 36.4728 31.8486 36.4723 31.9266 36.4723C31.9918 36.4723 32.0575 36.4728 32.1235 36.4728C32.7528 36.48 33.3832 36.4874 34.0141 36.4946C34.3403 36.4976 34.6656 36.5067 34.9894 36.5067C35.026 36.5067 35.0635 36.5067 35.1007 36.5058C35.225 36.505 35.3982 36.5028 35.5622 36.4758C35.7266 36.4507 35.8776 36.3976 35.9595 36.3182C36.0144 36.2643 36.0457 36.2038 36.0473 36.1094V36.1067C36.0473 36.008 36.0126 35.8852 35.9626 35.7635C35.9124 35.6424 35.8467 35.5206 35.7914 35.4176C35.7542 35.3479 35.714 35.2787 35.6735 35.2087C34.8359 33.75 34.04 32.2752 33.2462 30.7943C32.3271 29.0825 31.4111 27.3678 30.4898 25.6574C30.4836 25.646 30.4799 25.6333 30.479 25.6204C30.4781 25.6074 30.4799 25.5944 30.4845 25.5822C30.4887 25.5699 30.4955 25.5586 30.5044 25.5491C30.5133 25.5397 30.5242 25.5323 30.5363 25.5274C31.7313 25.0389 32.7085 24.0331 33.5204 23.031C34.6222 21.6703 35.5324 20.1798 36.3865 18.6507C36.6807 18.1242 36.943 17.5756 37.2262 17.0354C36.6849 17.8958 35.8925 18.743 34.8627 19.5753C33.5085 20.6666 31.2075 21.7439 27.9829 22.796C24.8726 23.8123 22.5872 24.9912 21.1176 26.3468C20.4216 26.9809 19.9312 27.4207 19.648 27.654C19.583 27.7205 19.2729 28.0445 18.7316 28.6442C18.0746 29.3831 17.378 30.2667 16.6509 31.2955C16.3752 31.6859 16.1407 32.0186 15.9393 32.306C15.4125 33.2782 14.8789 34.2475 14.3266 35.2088C14.2863 35.2787 14.246 35.3479 14.2087 35.4162Z" fill="white"/>
<path d="M38.6446 14.7147C38.6307 14.7604 38.584 14.8291 38.5192 14.9004C38.4553 14.9726 38.3781 15.0469 38.3118 15.1315L38.3107 15.1326C38.1853 15.296 38.0558 15.4643 37.9417 15.6492L37.9426 15.6481C37.7667 15.929 37.5972 16.2137 37.4342 16.5022C37.037 17.2015 36.7069 17.9301 36.3237 18.6157C35.4704 20.1433 34.5615 21.6305 33.4645 22.9853C32.6553 23.9856 31.685 24.9807 30.5088 25.4612C30.4875 25.47 30.4683 25.4832 30.4524 25.4998C30.4365 25.5165 30.4243 25.5362 30.4164 25.5579C30.4008 25.6017 30.4047 25.6503 30.4263 25.6912C31.3472 27.4021 32.2638 29.1155 33.1832 30.8281C33.9769 32.309 34.7731 33.7838 35.6109 35.2433L35.6107 35.2422C35.6514 35.3148 35.6914 35.3837 35.7284 35.4509C35.7837 35.5545 35.8478 35.6737 35.8963 35.7911C35.9452 35.9074 35.9763 36.0231 35.9758 36.106V36.1093C35.9736 36.1862 35.9531 36.2231 35.9113 36.2658C35.8482 36.3289 35.7082 36.3813 35.5509 36.4052C35.3936 36.4303 35.2241 36.4334 35.1004 36.4345H34.9772C34.6585 36.4345 34.3376 36.4261 34.0144 36.4231C33.3838 36.4154 32.754 36.4072 32.1238 36.4013C32.0668 36.4003 32.0098 36.3998 31.9528 36.3999C31.8635 36.3999 31.7747 36.4005 31.6861 36.4005C31.458 36.4005 31.2328 36.3975 31.0144 36.3766C30.1143 36.2897 29.2949 35.8407 28.7657 35.107C28.7481 35.0825 28.7011 35.0112 28.637 34.9101C28.1841 34.1973 26.8117 31.9456 26.2117 30.9639C25.9502 30.535 25.1393 29.2665 25.1391 29.2654C25.1243 29.2422 25.1038 29.223 25.0795 29.2097C25.0553 29.1965 25.0282 29.1895 25.0005 29.1895C24.9445 29.1895 24.892 29.2182 24.8617 29.2654C24.8609 29.2665 24.0503 30.535 23.7883 30.9639C23.4462 31.5251 22.8505 32.5004 22.319 33.3666C22.0532 33.7999 21.8028 34.2055 21.6082 34.5182C21.5273 34.6493 21.4455 34.7799 21.363 34.91C21.2992 35.0112 21.252 35.0825 21.2343 35.1073C20.7059 35.8407 19.8863 36.2897 18.9857 36.3765C18.7675 36.3974 18.5427 36.4005 18.314 36.4005C18.2253 36.4005 18.1363 36.3999 18.0473 36.3999C17.9902 36.3999 17.9335 36.4002 17.876 36.4013C17.2457 36.4072 16.6158 36.4154 15.9857 36.4231C15.6628 36.4261 15.3415 36.4345 15.0228 36.4345H14.8999C14.7349 36.4336 14.4869 36.427 14.3001 36.3724C14.2065 36.3462 14.132 36.3074 14.0896 36.2657C14.0478 36.2231 14.0276 36.1868 14.0254 36.1088V36.106C14.0249 36.0231 14.0555 35.9074 14.1047 35.7908C14.1532 35.6735 14.2169 35.5541 14.2717 35.4509C14.3072 35.3842 14.3484 35.3153 14.3896 35.2422L14.389 35.2433C15.2278 33.7838 16.0237 32.309 16.8182 30.8275C17.7366 29.1155 18.6528 27.4021 19.5731 25.6913C19.5951 25.6502 19.5987 25.6017 19.5832 25.5579C19.5754 25.5362 19.5631 25.5164 19.5472 25.4998C19.5312 25.4831 19.512 25.4699 19.4907 25.4611C18.3148 24.9807 17.3445 23.9856 16.535 22.9852C15.4393 21.6302 14.5293 20.1433 13.6769 18.6159C13.2928 17.9301 12.9631 17.2015 12.5663 16.5022C12.4031 16.2139 12.2336 15.9293 12.058 15.6484L12.0585 15.649C11.9441 15.4646 11.8156 15.2959 11.6894 15.1324C11.623 15.0469 11.5453 14.972 11.4808 14.8999C11.4166 14.8287 11.3689 14.7604 11.356 14.7147C11.3362 14.6542 11.329 14.6064 11.329 14.5711C11.3301 14.5142 11.3431 14.4891 11.3637 14.4626C11.3949 14.4238 11.4748 14.3822 11.591 14.3595C11.7065 14.3359 11.8494 14.329 11.9897 14.329C12.1205 14.329 12.2478 14.3345 12.3556 14.3345H12.3685C12.9655 14.3334 13.5614 14.3328 14.1582 14.3317C14.5756 14.3317 14.9938 14.3309 15.4109 14.3309H15.4156C15.8674 14.3306 16.3152 14.505 16.7398 14.7604C17.1637 15.0153 17.5602 15.3484 17.9076 15.6475C18.5743 16.2201 19.1518 16.9207 19.7069 17.6235C19.7441 17.6704 19.8034 17.6938 19.8624 17.6839C19.9213 17.6745 19.9701 17.634 19.9905 17.5777C20.1858 17.0406 20.445 16.5096 20.7147 16.0234L20.7178 16.0182C21.0534 15.3533 21.7316 14.7094 22.4461 14.5645C22.6301 14.526 22.8321 14.5153 23.0409 14.5153C23.2442 14.5153 23.4528 14.5252 23.6574 14.5252C23.7735 14.5248 23.9619 14.5248 24.1608 14.5248C24.5584 14.5248 24.9992 14.5252 25.0003 14.5252C25.0014 14.5252 25.4419 14.5248 25.8395 14.5248C26.0385 14.5248 26.2263 14.5248 26.3421 14.5252C26.5472 14.5252 26.7559 14.5153 26.9597 14.5153C27.168 14.5153 27.3708 14.5259 27.5537 14.5645C28.2681 14.7095 28.947 15.3533 29.2828 16.0182L29.2856 16.0234C29.5553 16.5096 29.8137 17.0406 30.0096 17.5777C30.03 17.634 30.0793 17.6745 30.1383 17.6839C30.1672 17.6886 30.1969 17.6855 30.2242 17.6749C30.2515 17.6643 30.2755 17.6465 30.2936 17.6235C30.8485 16.9207 31.426 16.2198 32.0918 15.6475C32.4401 15.3484 32.8366 15.0153 33.2606 14.7604C33.6849 14.505 34.1331 14.3306 34.5847 14.3309H34.5891C35.0065 14.3309 35.4239 14.3317 35.8421 14.3317C36.4382 14.3328 37.0353 14.3334 37.6329 14.3345H37.6456C37.753 14.3345 37.8805 14.329 38.0112 14.329C38.198 14.3282 38.3911 14.3425 38.5128 14.3877C38.574 14.4097 38.6148 14.4367 38.6364 14.4626C38.6575 14.489 38.6699 14.5142 38.671 14.5711C38.671 14.6063 38.6638 14.6547 38.6446 14.7147V14.7147ZM38.8862 14.2486C38.7762 14.1226 38.6258 14.0686 38.4749 14.0373C38.3225 14.006 38.1619 14 38.0112 14C37.8715 14 37.7414 14.0058 37.6456 14.0058H37.6332C37.0359 14.0047 36.4388 14.0042 35.8421 14.0031C35.4242 14.0031 35.007 14.002 34.5891 14.002H34.5899L34.5847 14.0016C34.0474 14.0022 33.5446 14.2059 33.0909 14.4786C32.6371 14.752 32.2283 15.0971 31.8778 15.3977C31.2554 15.9336 30.7197 16.5645 30.2134 17.1973C30.027 16.7325 29.8046 16.2807 29.5729 15.8636C29.1943 15.1285 28.4734 14.4239 27.6209 14.2422C27.4027 14.1964 27.179 14.1863 26.9597 14.1863C26.7459 14.1863 26.5362 14.1959 26.3429 14.1959C26.2269 14.1957 26.0387 14.1957 25.8395 14.1957L25.0003 14.1959L24.1608 14.1957C23.9616 14.1957 23.7735 14.1957 23.6567 14.1959C23.4635 14.1959 23.2543 14.1863 23.0409 14.1863C22.8213 14.1863 22.5979 14.1964 22.3785 14.2424C21.5245 14.4243 20.8024 15.1315 20.4244 15.8688H20.4247C20.1943 16.2842 19.9722 16.7342 19.7866 17.1973C19.2807 16.5645 18.7449 15.9331 18.1225 15.3977C17.7723 15.0971 17.3634 14.752 16.9097 14.4786C16.4556 14.2059 15.9531 14.0022 15.4156 14.0016L15.4068 14.002C14.9905 14.002 14.5737 14.0031 14.158 14.0031C13.5609 14.0042 12.965 14.0047 12.3677 14.0058H12.3556C12.2591 14.0058 12.1288 14 11.9897 14C11.7892 14.0005 11.5701 14.0097 11.3767 14.0778C11.2797 14.1124 11.1869 14.1645 11.1139 14.2486C11.0412 14.3316 10.9987 14.4477 11 14.5711C11 14.6486 11.015 14.7295 11.0419 14.8153C11.0841 14.9409 11.1618 15.0354 11.2351 15.1194C11.31 15.2023 11.3844 15.2756 11.4287 15.3335C11.5541 15.4955 11.6757 15.6558 11.7786 15.8225L11.7789 15.8227C11.9523 16.0995 12.1194 16.3802 12.2801 16.6644C12.6673 17.3461 12.9967 18.0742 13.3895 18.7766C14.2463 20.3108 15.1652 21.8148 16.2791 23.1921C17.0659 24.1619 18.0164 25.1488 19.2014 25.6876C18.3083 27.3486 17.4183 29.0111 16.5281 30.6724C15.7338 32.1533 14.9398 33.625 14.1036 35.0795L14.1034 35.08C14.0643 35.1486 14.0218 35.22 13.9813 35.2968C13.9268 35.3993 13.8574 35.5272 13.8003 35.6652C13.7442 35.8033 13.6967 35.9509 13.6962 36.106V36.1129H13.6965C13.6959 36.271 13.7631 36.4118 13.862 36.5039C14.0127 36.6446 14.2096 36.6981 14.3971 36.7303C14.5851 36.76 14.7704 36.7622 14.8979 36.7629C14.9395 36.7631 14.9817 36.7634 15.0228 36.7634C15.3472 36.7634 15.6697 36.7551 15.9892 36.7521C16.6202 36.7449 17.2503 36.7361 17.8795 36.7303C17.9354 36.7297 17.9914 36.7294 18.0473 36.7294C18.1354 36.7294 18.2244 36.7298 18.314 36.7298C18.5449 36.7298 18.781 36.727 19.017 36.7041C20.0067 36.6091 20.915 36.1129 21.5013 35.299C21.5297 35.2602 21.5749 35.1897 21.641 35.0864C22.0981 34.367 23.4692 32.1179 24.0694 31.1352C24.1978 30.9247 24.4658 30.5011 24.7011 30.1306C24.8154 29.9508 24.921 29.7844 25.0005 29.6599C25.0799 29.7844 25.1854 29.9508 25.2997 30.1306C25.5351 30.5011 25.8025 30.9247 25.9315 31.1352C26.4201 31.9372 26.9099 32.7385 27.4008 33.539C27.667 33.9724 27.9174 34.3785 28.1127 34.6923C28.2103 34.8494 28.2942 34.9833 28.3593 35.0864C28.4251 35.1897 28.4706 35.2599 28.4984 35.2988C29.0855 36.1129 29.9936 36.6091 30.9826 36.7041C31.2193 36.727 31.4552 36.7298 31.6861 36.7298C31.7758 36.7298 31.8646 36.7294 31.9528 36.7294C32.0092 36.7294 32.0646 36.7298 32.1203 36.7303C32.7495 36.7361 33.3799 36.7449 34.0108 36.7521C34.3306 36.7551 34.6528 36.7634 34.9773 36.7634C35.0186 36.7634 35.0608 36.7631 35.102 36.7629C35.2728 36.7612 35.5431 36.7592 35.7916 36.6884C35.9159 36.6523 36.0386 36.5987 36.1381 36.5041C36.2385 36.4112 36.3066 36.2691 36.3044 36.1092V36.1059C36.3042 35.9509 36.2571 35.8033 36.2006 35.6649C36.1429 35.5269 36.0735 35.3987 36.0181 35.2957C35.978 35.2206 35.936 35.1494 35.8967 35.08L35.8963 35.0795C35.0608 33.625 34.2667 32.1533 33.473 30.6724C32.5817 29.0111 31.6916 27.3488 30.7984 25.6877C31.9834 25.1488 32.9338 24.1619 33.7204 23.1924C34.8351 21.8148 35.7534 20.3108 36.611 18.7766C37.0037 18.0742 37.3328 17.3461 37.7202 16.6644C37.8809 16.3804 38.0479 16.1 38.2211 15.8234L38.2219 15.822C38.3244 15.6561 38.4467 15.4955 38.5716 15.3327L38.5707 15.3338C38.6159 15.2757 38.6906 15.2021 38.7649 15.1192C38.8386 15.0352 38.9159 14.9409 38.9578 14.8159C38.9853 14.7296 39 14.6487 39 14.5711C39.0016 14.4477 38.9593 14.332 38.8862 14.2486V14.2486Z" fill="#2A2D2C"/>
</svg>
